<svg xmlns="http://www.w3.org/2000/svg" width="378" height="378" viewBox="0 0 378 378" fill="none"><circle cx="189" cy="189" r="189" fill="#111111"></circle><path d="M188.82 108.079L224.149 168.776L225.013 168.273L224.149 168.776L236.216 189.503L248.281 210.231L260.345 230.958L271.535 250.182H223.397C217.082 250.182 211.949 255.262 211.949 261.546C211.949 267.829 217.082 272.909 223.397 272.909H291.371C297.686 272.909 302.82 267.829 302.82 261.546C302.82 259.587 302.321 257.747 301.441 256.136C301.412 256.081 301.383 256.031 301.367 256.004L301.365 256.001L301.364 255.998L301.188 255.697C301.187 255.694 301.185 255.693 301.185 255.691L301.181 255.686L301.173 255.671L301.171 255.668L301.166 255.659L301.164 255.656L301.163 255.654L301.163 255.654L301.163 255.653L301.163 255.653L298.268 250.679L297.403 251.182L298.268 250.679L262.074 188.497L250.009 167.77L237.945 147.043L237.081 147.546L237.945 147.042L225.877 126.315L201.748 84.8606L201.748 84.8603L198.882 79.9399C198.854 79.8866 198.827 79.8403 198.813 79.8168C198.813 79.8165 198.812 79.8161 198.812 79.8158L198.64 79.5215C198.631 79.5036 198.618 79.4811 198.602 79.4557C196.591 76.1848 192.962 74 188.82 74C184.677 74 181.047 76.1854 179.037 79.4572C179.019 79.4848 179.007 79.5074 179 79.5185C179 79.5189 179 79.5192 179 79.5196L178.827 79.8158L178.825 79.8187L178.824 79.8214C178.809 79.8461 178.783 79.89 178.757 79.94L175.891 84.8603L175.891 84.8606L139.697 147.042L139.697 147.043L127.63 167.77L127.63 167.77L115.565 188.497L103.501 209.224L79.3715 250.679L80.2358 251.182L79.3715 250.679L76.476 255.654C76.4634 255.675 76.4542 255.691 76.4491 255.7C76.4489 255.701 76.4487 255.701 76.4485 255.702L76.2755 255.998L76.2738 256.001L76.2723 256.003C76.2564 256.03 76.227 256.08 76.198 256.136C75.3186 257.747 74.8195 259.587 74.8195 261.546C74.8195 267.829 79.9531 272.909 86.2681 272.909H154.242C160.557 272.909 165.69 267.829 165.69 261.546C165.69 255.262 160.557 250.182 154.242 250.182H106.104L117.294 230.958L129.358 210.231L141.426 189.503L141.426 189.503L177.619 127.321L188.82 108.079Z" fill="white" stroke="white" stroke-width="2"></path><path d="M154.242 306C160.557 306 165.691 300.92 165.691 294.637C165.691 288.353 160.557 283.273 154.242 283.273C147.927 283.273 142.793 288.353 142.793 294.637C142.793 300.92 147.927 306 154.242 306Z" fill="white" stroke="white" stroke-width="2"></path><path d="M188.82 306C195.135 306 200.268 300.92 200.268 294.637C200.268 288.353 195.135 283.273 188.82 283.273C182.504 283.273 177.371 288.353 177.371 294.637C177.371 300.92 182.504 306 188.82 306Z" fill="white" stroke="white" stroke-width="2"></path><path d="M223.397 306C229.712 306 234.846 300.92 234.846 294.637C234.846 288.353 229.712 283.273 223.397 283.273C217.082 283.273 211.949 288.353 211.949 294.637C211.949 300.92 217.082 306 223.397 306Z" fill="white" stroke="white" stroke-width="2"></path></svg>