<svg width="1265" height="241" viewBox="0 0 1265 241" fill="none" xmlns="http://www.w3.org/2000/svg">
<g clip-path="url(#clip0_1724_8)">
<path d="M238.484 196.9C238.484 202.942 233.548 207.839 227.459 207.839H155.73C149.641 207.839 144.704 202.942 144.704 196.9C144.704 190.859 149.641 185.962 155.73 185.962H208.362L195.631 164.084L182.9 142.206L170.169 120.328L157.435 98.4505L119.243 32.8168L106.511 54.6946L68.318 120.328L55.5843 142.206L42.8533 164.084L30.1222 185.962H82.7543C88.8435 185.962 93.7805 190.859 93.7805 196.9C93.7805 202.942 88.8435 207.839 82.7543 207.839H11.0257C4.93658 207.839 0 202.942 0 196.9C0 195.011 0.482194 193.237 1.33191 191.685C1.34955 191.65 1.37013 191.615 1.39071 191.58L1.58477 191.247L1.59652 191.227L4.6602 185.962L30.1222 142.206L42.8533 120.328L55.5843 98.4505L68.318 76.5724L106.511 10.9389L109.548 5.72324C109.566 5.68824 109.587 5.65323 109.607 5.61823L109.802 5.28568L109.813 5.26526C111.748 2.10902 115.246 0 119.243 0C123.238 0 126.737 2.10902 128.671 5.26526L128.683 5.28568L128.877 5.61823C128.898 5.65323 128.919 5.68824 128.936 5.72324L131.973 10.9389L157.435 54.6946L170.169 76.5724L182.9 98.4505L195.631 120.328L233.824 185.962L236.888 191.227L236.9 191.247L237.094 191.58C237.115 191.615 237.135 191.65 237.152 191.685C238.003 193.237 238.484 195.011 238.484 196.9Z" fill="#111111"/>
<path d="M82.7581 240.656C88.8473 240.656 93.7837 235.759 93.7837 229.718C93.7837 223.676 88.8473 218.779 82.7581 218.779C76.6683 218.779 71.7324 223.676 71.7324 229.718C71.7324 235.759 76.6683 240.656 82.7581 240.656Z" fill="#111111"/>
<path d="M119.238 240.656C125.327 240.656 130.264 235.759 130.264 229.718C130.264 223.676 125.327 218.779 119.238 218.779C113.149 218.779 108.212 223.676 108.212 229.718C108.212 235.759 113.149 240.656 119.238 240.656Z" fill="#111111"/>
<path d="M155.73 240.656C161.819 240.656 166.756 235.759 166.756 229.718C166.756 223.676 161.819 218.779 155.73 218.779C149.64 218.779 144.705 223.676 144.705 229.718C144.705 235.759 149.64 240.656 155.73 240.656Z" fill="#111111"/>
<path d="M340.924 167.368C332.524 167.368 324.918 166.388 318.104 164.428C311.384 162.468 305.551 159.528 300.604 155.608C295.751 151.688 292.018 146.835 289.404 141.048C286.791 135.262 285.484 128.588 285.484 121.028C285.484 113.375 286.838 106.608 289.544 100.728C292.344 94.7549 296.264 89.7149 301.304 85.6082C306.438 81.5015 312.504 78.4215 319.504 76.3682C326.598 74.2215 334.438 73.1482 343.024 73.1482C353.198 73.1482 361.971 74.5949 369.344 77.4882C376.718 80.2882 382.504 84.2549 386.704 89.3882C390.998 94.5215 393.424 100.635 393.984 107.728H376.064C374.851 103.995 372.844 100.775 370.044 98.0682C367.338 95.2682 363.744 93.1215 359.264 91.6282C354.784 90.0415 349.371 89.2482 343.024 89.2482C334.904 89.2482 327.951 90.5549 322.164 93.1682C316.471 95.7815 312.131 99.4682 309.144 104.228C306.158 108.988 304.664 114.588 304.664 121.028C304.664 127.282 305.971 132.695 308.584 137.268C311.198 141.748 315.211 145.202 320.624 147.628C326.131 150.055 333.131 151.268 341.624 151.268C348.158 151.268 353.898 150.428 358.844 148.748C363.884 146.975 368.084 144.642 371.444 141.748C374.804 138.762 377.184 135.448 378.584 131.808L385.864 129.148C384.651 141.188 380.078 150.568 372.144 157.288C364.304 164.008 353.898 167.368 340.924 167.368ZM381.104 165.548C381.104 162.655 381.291 159.342 381.664 155.608C382.038 151.782 382.504 147.955 383.064 144.128C383.624 140.208 384.138 136.615 384.604 133.348H343.164V121.448H397.204V165.548H381.104Z" fill="#111111"/>
<path d="M494.933 165.548H476.733V95.9682H494.933V165.548ZM477.713 132.088L477.853 136.848C477.666 138.155 477.2 140.068 476.453 142.588C475.706 145.015 474.54 147.628 472.953 150.428C471.46 153.228 469.5 155.935 467.073 158.548C464.646 161.068 461.66 163.168 458.113 164.848C454.566 166.435 450.366 167.228 445.513 167.228C441.686 167.228 437.906 166.762 434.173 165.828C430.533 164.895 427.22 163.355 424.233 161.208C421.246 158.968 418.866 155.982 417.093 152.248C415.32 148.515 414.433 143.802 414.433 138.108V95.9682H432.633V135.028C432.633 139.508 433.333 143.055 434.733 145.668C436.226 148.188 438.373 149.962 441.173 150.988C443.973 152.015 447.286 152.528 451.113 152.528C456.153 152.528 460.493 151.455 464.133 149.308C467.773 147.068 470.713 144.362 472.953 141.188C475.286 138.015 476.873 134.982 477.713 132.088Z" fill="#111111"/>
<path d="M508.703 142.448H525.503C526.53 145.622 528.63 148.235 531.803 150.288C535.07 152.248 539.317 153.228 544.543 153.228C548.09 153.228 550.843 152.902 552.803 152.248C554.763 151.595 556.117 150.662 556.863 149.448C557.61 148.142 557.983 146.695 557.983 145.108C557.983 143.148 557.377 141.655 556.163 140.628C554.95 139.508 553.083 138.622 550.563 137.968C548.043 137.315 544.823 136.708 540.903 136.148C536.983 135.495 533.203 134.702 529.563 133.768C525.923 132.835 522.703 131.622 519.903 130.128C517.103 128.542 514.863 126.582 513.183 124.248C511.597 121.822 510.803 118.882 510.803 115.428C510.803 112.068 511.597 109.082 513.183 106.468C514.863 103.855 517.15 101.662 520.043 99.8882C523.03 98.1149 526.483 96.7615 530.403 95.8282C534.417 94.8949 538.71 94.4282 543.283 94.4282C550.19 94.4282 555.93 95.4549 560.503 97.5082C565.077 99.4682 568.483 102.268 570.723 105.908C573.057 109.455 574.223 113.562 574.223 118.228H558.123C557.377 114.775 555.883 112.302 553.643 110.808C551.403 109.222 547.95 108.428 543.283 108.428C538.71 108.428 535.257 109.128 532.923 110.528C530.59 111.928 529.423 113.842 529.423 116.268C529.423 118.228 530.123 119.768 531.523 120.888C533.017 121.915 535.163 122.755 537.963 123.408C540.857 124.062 544.45 124.762 548.743 125.508C552.383 126.255 555.837 127.095 559.103 128.028C562.463 128.962 565.45 130.175 568.063 131.668C570.677 133.068 572.73 134.982 574.223 137.408C575.81 139.742 576.603 142.728 576.603 146.368C576.603 150.848 575.297 154.628 572.683 157.708C570.163 160.788 566.523 163.168 561.763 164.848C557.003 166.435 551.31 167.228 544.683 167.228C538.803 167.228 533.717 166.622 529.423 165.408C525.223 164.102 521.723 162.468 518.923 160.508C516.123 158.455 513.93 156.308 512.343 154.068C510.85 151.735 509.823 149.542 509.263 147.488C508.703 145.435 508.517 143.755 508.703 142.448Z" fill="#111111"/>
<path d="M585.627 95.9682H639.667V110.108H585.627V95.9682ZM603.547 76.9282H621.747V165.548H603.547V76.9282Z" fill="#111111"/>
<path d="M684.153 167.088C677.246 167.088 670.946 165.595 665.253 162.608C659.653 159.528 655.173 155.282 651.813 149.868C648.546 144.362 646.913 138.015 646.913 130.828C646.913 123.455 648.593 117.062 651.953 111.648C655.313 106.235 659.84 102.035 665.533 99.0482C671.32 95.9682 677.853 94.4282 685.133 94.4282C693.16 94.4282 699.6 96.0615 704.453 99.3282C709.4 102.502 712.993 106.842 715.233 112.348C717.473 117.855 718.593 124.015 718.593 130.828C718.593 134.935 717.94 139.135 716.633 143.428C715.326 147.628 713.32 151.548 710.613 155.188C707.906 158.735 704.36 161.628 699.973 163.868C695.586 166.015 690.313 167.088 684.153 167.088ZM690.033 153.088C695.54 153.088 700.3 152.155 704.313 150.288C708.326 148.422 711.406 145.808 713.553 142.448C715.7 139.088 716.773 135.215 716.773 130.828C716.773 126.068 715.653 122.055 713.413 118.788C711.266 115.428 708.186 112.908 704.173 111.228C700.253 109.455 695.54 108.568 690.033 108.568C682.286 108.568 676.266 110.622 671.973 114.728C667.68 118.742 665.533 124.108 665.533 130.828C665.533 135.308 666.56 139.228 668.613 142.588C670.666 145.855 673.513 148.422 677.153 150.288C680.886 152.155 685.18 153.088 690.033 153.088ZM716.773 95.9682H734.973V165.548H718.033C718.033 165.548 717.893 164.662 717.613 162.888C717.426 161.022 717.24 158.688 717.053 155.888C716.866 153.088 716.773 150.335 716.773 147.628V95.9682Z" fill="#111111"/>
<path d="M747.805 135.028H766.705C767.078 138.202 768.525 141.095 771.045 143.708C773.658 146.228 777.065 148.235 781.265 149.728C785.465 151.128 790.178 151.828 795.405 151.828C800.165 151.828 804.085 151.315 807.165 150.288C810.245 149.262 812.532 147.815 814.025 145.948C815.518 144.082 816.265 141.842 816.265 139.228C816.265 136.708 815.332 134.795 813.465 133.488C811.598 132.088 808.658 130.968 804.645 130.128C800.632 129.195 795.358 128.262 788.825 127.328C783.692 126.582 778.838 125.555 774.265 124.248C769.691 122.848 765.632 121.075 762.085 118.928C758.632 116.782 755.878 114.168 753.825 111.088C751.865 107.915 750.885 104.182 750.885 99.8882C750.885 94.5682 752.378 89.9015 755.365 85.8882C758.445 81.8749 762.972 78.7482 768.945 76.5082C774.918 74.2682 782.245 73.1482 790.925 73.1482C803.992 73.1482 814.025 75.9482 821.025 81.5482C828.118 87.0549 831.571 94.6615 831.385 104.368H813.185C812.812 98.8615 810.478 94.8949 806.185 92.4682C801.985 90.0415 796.665 88.8282 790.225 88.8282C784.252 88.8282 779.305 89.7149 775.385 91.4882C771.558 93.2615 769.645 96.2949 769.645 100.588C769.645 102.268 770.111 103.762 771.045 105.068C771.978 106.282 773.565 107.355 775.805 108.288C778.045 109.222 781.078 110.108 784.905 110.948C788.732 111.788 793.492 112.628 799.185 113.468C804.505 114.215 809.312 115.242 813.605 116.548C817.992 117.762 821.725 119.395 824.805 121.448C827.978 123.408 830.405 125.928 832.085 129.008C833.765 132.088 834.605 135.868 834.605 140.348C834.605 145.855 833.158 150.662 830.265 154.768C827.465 158.782 823.078 161.908 817.105 164.148C811.225 166.388 803.572 167.508 794.145 167.508C787.425 167.508 781.498 166.808 776.365 165.408C771.232 163.915 766.798 161.955 763.065 159.528C759.332 157.102 756.298 154.442 753.965 151.548C751.632 148.655 749.952 145.762 748.925 142.868C747.992 139.975 747.618 137.362 747.805 135.028Z" fill="#111111"/>
<path d="M889.672 167.228C880.899 167.228 873.152 165.828 866.432 163.028C859.805 160.228 854.625 156.168 850.892 150.848C847.159 145.435 845.292 138.808 845.292 130.968C845.292 123.128 847.159 116.502 850.892 111.088C854.625 105.582 859.805 101.428 866.432 98.6282C873.152 95.8282 880.899 94.4282 889.672 94.4282C898.445 94.4282 906.099 95.8282 912.632 98.6282C919.259 101.428 924.439 105.582 928.172 111.088C931.905 116.502 933.772 123.128 933.772 130.968C933.772 138.808 931.905 145.435 928.172 150.848C924.439 156.168 919.259 160.228 912.632 163.028C906.099 165.828 898.445 167.228 889.672 167.228ZM889.672 153.228C894.525 153.228 898.865 152.388 902.692 150.708C906.612 148.935 909.692 146.415 911.932 143.148C914.172 139.788 915.292 135.728 915.292 130.968C915.292 126.208 914.172 122.148 911.932 118.788C909.692 115.335 906.659 112.722 902.832 110.948C899.005 109.175 894.619 108.288 889.672 108.288C884.819 108.288 880.432 109.175 876.512 110.948C872.592 112.722 869.465 115.288 867.132 118.648C864.892 122.008 863.772 126.115 863.772 130.968C863.772 135.728 864.892 139.788 867.132 143.148C869.372 146.415 872.452 148.935 876.372 150.708C880.292 152.388 884.725 153.228 889.672 153.228Z" fill="#111111"/>
<path d="M981.106 167.088C974.199 167.088 967.899 165.595 962.206 162.608C956.606 159.528 952.126 155.282 948.766 149.868C945.499 144.362 943.866 138.015 943.866 130.828C943.866 123.455 945.546 117.062 948.906 111.648C952.266 106.235 956.793 102.035 962.486 99.0482C968.273 95.9682 974.806 94.4282 982.086 94.4282C990.113 94.4282 996.553 96.0615 1001.41 99.3282C1006.35 102.502 1009.95 106.842 1012.19 112.348C1014.43 117.855 1015.55 124.015 1015.55 130.828C1015.55 134.935 1014.89 139.135 1013.59 143.428C1012.28 147.628 1010.27 151.548 1007.57 155.188C1004.86 158.735 1001.31 161.628 996.926 163.868C992.539 166.015 987.266 167.088 981.106 167.088ZM986.986 153.088C992.493 153.088 997.253 152.155 1001.27 150.288C1005.28 148.422 1008.36 145.808 1010.51 142.448C1012.65 139.088 1013.73 135.215 1013.73 130.828C1013.73 126.068 1012.61 122.055 1010.37 118.788C1008.22 115.428 1005.14 112.908 1001.13 111.228C997.206 109.455 992.493 108.568 986.986 108.568C979.239 108.568 973.219 110.622 968.926 114.728C964.633 118.742 962.486 124.108 962.486 130.828C962.486 135.308 963.513 139.228 965.566 142.588C967.619 145.855 970.466 148.422 974.106 150.288C977.839 152.155 982.133 153.088 986.986 153.088ZM1013.73 95.9682H1031.93V165.548H1014.99C1014.99 165.548 1014.85 164.662 1014.57 162.888C1014.38 161.022 1014.19 158.688 1014.01 155.888C1013.82 153.088 1013.73 150.335 1013.73 147.628V95.9682Z" fill="#111111"/>
<path d="M1048.4 95.9682H1066.6V165.548H1048.4V95.9682ZM1093.34 110.948C1088.11 110.948 1083.58 111.975 1079.76 114.028C1075.93 115.988 1072.85 118.415 1070.52 121.308C1068.18 124.202 1066.55 127.002 1065.62 129.708L1065.48 122.008C1065.57 120.888 1065.94 119.255 1066.6 117.108C1067.25 114.868 1068.23 112.488 1069.54 109.968C1070.84 107.355 1072.57 104.882 1074.72 102.548C1076.86 100.122 1079.48 98.1615 1082.56 96.6682C1085.64 95.1749 1089.23 94.4282 1093.34 94.4282V110.948Z" fill="#111111"/>
<path d="M1168.01 142.448H1185.65C1184.9 147.208 1182.9 151.455 1179.63 155.188C1176.46 158.922 1172.12 161.862 1166.61 164.008C1161.1 166.155 1154.38 167.228 1146.45 167.228C1137.58 167.228 1129.74 165.828 1122.93 163.028C1116.12 160.135 1110.8 155.982 1106.97 150.568C1103.14 145.155 1101.23 138.622 1101.23 130.968C1101.23 123.315 1103.1 116.782 1106.83 111.368C1110.56 105.862 1115.74 101.662 1122.37 98.7682C1129.09 95.8749 1136.93 94.4282 1145.89 94.4282C1155.04 94.4282 1162.64 95.8749 1168.71 98.7682C1174.78 101.662 1179.26 106.048 1182.15 111.928C1185.14 117.715 1186.4 125.135 1185.93 134.188H1119.57C1120.04 137.735 1121.34 140.955 1123.49 143.848C1125.73 146.742 1128.72 149.028 1132.45 150.708C1136.28 152.388 1140.8 153.228 1146.03 153.228C1151.82 153.228 1156.62 152.248 1160.45 150.288C1164.37 148.235 1166.89 145.622 1168.01 142.448ZM1145.05 108.288C1138.33 108.288 1132.87 109.782 1128.67 112.768C1124.47 115.662 1121.76 119.255 1120.55 123.548H1167.87C1167.4 118.882 1165.16 115.195 1161.15 112.488C1157.23 109.688 1151.86 108.288 1145.05 108.288Z" fill="#111111"/>
<path d="M1196.67 142.448H1213.47C1214.5 145.622 1216.6 148.235 1219.77 150.288C1223.04 152.248 1227.29 153.228 1232.51 153.228C1236.06 153.228 1238.81 152.902 1240.77 152.248C1242.73 151.595 1244.09 150.662 1244.83 149.448C1245.58 148.142 1245.95 146.695 1245.95 145.108C1245.95 143.148 1245.35 141.655 1244.13 140.628C1242.92 139.508 1241.05 138.622 1238.53 137.968C1236.01 137.315 1232.79 136.708 1228.87 136.148C1224.95 135.495 1221.17 134.702 1217.53 133.768C1213.89 132.835 1210.67 131.622 1207.87 130.128C1205.07 128.542 1202.83 126.582 1201.15 124.248C1199.57 121.822 1198.77 118.882 1198.77 115.428C1198.77 112.068 1199.57 109.082 1201.15 106.468C1202.83 103.855 1205.12 101.662 1208.01 99.8882C1211 98.1149 1214.45 96.7615 1218.37 95.8282C1222.39 94.8949 1226.68 94.4282 1231.25 94.4282C1238.16 94.4282 1243.9 95.4549 1248.47 97.5082C1253.05 99.4682 1256.45 102.268 1258.69 105.908C1261.03 109.455 1262.19 113.562 1262.19 118.228H1246.09C1245.35 114.775 1243.85 112.302 1241.61 110.808C1239.37 109.222 1235.92 108.428 1231.25 108.428C1226.68 108.428 1223.23 109.128 1220.89 110.528C1218.56 111.928 1217.39 113.842 1217.39 116.268C1217.39 118.228 1218.09 119.768 1219.49 120.888C1220.99 121.915 1223.13 122.755 1225.93 123.408C1228.83 124.062 1232.42 124.762 1236.71 125.508C1240.35 126.255 1243.81 127.095 1247.07 128.028C1250.43 128.962 1253.42 130.175 1256.03 131.668C1258.65 133.068 1260.7 134.982 1262.19 137.408C1263.78 139.742 1264.57 142.728 1264.57 146.368C1264.57 150.848 1263.27 154.628 1260.65 157.708C1258.13 160.788 1254.49 163.168 1249.73 164.848C1244.97 166.435 1239.28 167.228 1232.65 167.228C1226.77 167.228 1221.69 166.622 1217.39 165.408C1213.19 164.102 1209.69 162.468 1206.89 160.508C1204.09 158.455 1201.9 156.308 1200.31 154.068C1198.82 151.735 1197.79 149.542 1197.23 147.488C1196.67 145.435 1196.49 143.755 1196.67 142.448Z" fill="#111111"/>
</g>
<defs>
<clipPath id="clip0_1724_8">
<rect width="1264.57" height="240.656" fill="white"/>
</clipPath>
</defs>
</svg>
